<svg height="36" width="135" xmlns="http://www.w3.org/2000/svg"><path d="M0 .7h11.3c2.8 0 4.7.9 6 2.4.9 1.1 1.4 2.6 1.4 4.4v.1c0 3.2-1.5 5-3.4 6.1 2.7 1.1 4.4 3 4.4 6.7v.1c0 4.7-3.1 7.5-8.3 7.5H0zm12.2 8.4c0-1.4-.9-2.2-2.6-2.2H6.4v4.6h3c1.8 0 2.8-.8 2.8-2.4zm-2 7.9H6.5v4.8h3.8c1.8 0 2.8-.9 2.8-2.4v-.1c0-1.3-.9-2.3-2.9-2.3zM21 .7h8.5c7.8 0 12.4 5.6 12.4 13.5v.1c0 7.9-4.6 13.7-12.5 13.7H21zm6.6 7V21h1.7c3.5 0 5.8-2.4 5.8-6.6v-.1c0-4.2-2.3-6.6-5.8-6.6zm28.6 13.4V7.9h6.2v10.7c0 2.2 1 3.4 2.5 3.4s2.6-1.2 2.6-3.4V7.9h6.2v20.2h-6.2v-2.8c-1.1 1.7-2.8 3.2-5.3 3.2-3.8 0-6-2.8-6-7.4zm40 0V7.9h6.2v10.7c0 2.2 1 3.4 2.5 3.4s2.6-1.2 2.6-3.4V7.9h6.2v20.2h-6.2v-2.8c-1.1 1.7-2.8 3.2-5.3 3.2-3.7 0-6-2.8-6-7.4zm38.8-7.5c-1.3-3.7-4.4-6.3-9.4-6.3-6 0-10.2 4.6-10.2 10.5v.1c0 6.2 4.5 10.4 10.8 10.4 2.9 0 5.9-.8 7.7-2.3l-.5-6.4c-2 1.4-5.7 3.8-10.1 2.2zm-13.6 4.6c-.9-2-.4-3.9 1.4-5.2s3.9-1.1 5.4.5zM54.9 5.8V.7h-3.3c-2.1 0-3.6.5-4.6 1.7s-1.5 2.7-1.5 5v.4h-2.1v5.4h2.1V28h6.2V13.3h3V7.9h-3.1v-.2c0-1.3.6-1.9 1.8-1.9zM75.5 32v-.1zm16.4-20.8l2-3.3H87c-.8-.2-1.6-.3-2.4-.3-5 0-9.1 4.1-9.1 9.1s4.1 9.1 9.1 9.1c.7 0 1.4-.1 2.1-.2.2.6.3 1.4.1 2-1 3-6.4 1.2-7.8-.3L75.4 32c9 6.8 15.4 1.1 15.4 1.1 4.9-4.1 1.2-11 1.2-11 1.1-1.5 1.8-3.4 1.8-5.4 0-2.1-.7-4-1.9-5.5zm-7.2 8.4c-1.6 0-2.9-1.3-2.9-2.9s1.3-2.9 2.9-2.9 2.9 1.3 2.9 2.9-1.3 2.9-2.9 2.9z" fill="#282727"/></svg>