<svg height="30" width="194" xmlns="http://www.w3.org/2000/svg"><g fill-rule="evenodd"><path d="M188.743 23.125H194V28.5h-5.257zm-10.889-15.25H174.6v3.375h3.254V23.5c.125 3.5.876 5.25 5.382 5.25 1.001 0 1.878-.125 2.879-.25V25c-.626.125-1.252.125-1.878.125-2.002 0-2.127-1-2.127-2.875v-11h3.88V7.875h-3.88v-6.25h-4.381zm-16.146 9.875l-7.384 10.875h5.131L164.337 21l5.006 7.625h5.257L167.09 17.5l6.759-9.625h-5.006l-4.256 6.375-4.13-6.375h-5.507z"/><path d="M140.431 16.375c.125-3.125 2.128-5.5 5.132-5.5 3.003 0 4.756 2.625 5.006 5.5zm-4.256 1.875c0 6.375 3.38 10.875 9.638 10.875 4.255 0 8.01-2.5 8.886-7h-4.13c-.75 2.25-2.253 3.5-4.756 3.5-3.63 0-5.257-2.875-5.257-6.125h14.394c.75-6.25-3.13-12.125-9.262-12.125-5.883 0-9.513 5-9.513 10.875z" fill-rule="nonzero"/><path d="M116.025 0h-5.007v28.625h4.506v-21h.125l12.391 21h5.006V0h-4.505v21h-.126zm-18.9 13.75h4.506c-.5-4.625-4.13-6.375-8.26-6.375-3.63 0-8.261 1.375-8.261 5.875 0 4.25 3.129 5.375 6.258 6.125s6.258 1 6.383 3.5c.125 2.375-2.754 2.75-4.38 2.75-2.379 0-4.131-.875-4.506-3.625h-4.381c.125 4.875 3.755 7.25 8.761 7.25 4.13 0 8.761-1.75 8.761-6.75 0-4.125-3.254-5.25-6.383-6-3.254-.75-6.383-1.125-6.383-3.375 0-1.75 2.378-2.125 3.63-2.125 2.253 0 3.88.5 4.255 2.75M83.733 5.375V0h-4.756v5.375h2.378c0 1.75-.5 3.25-2.378 3.625v2.375c2.878-.5 4.756-2.875 4.756-6"/><path d="M72.594 18.25c0 3.625-1.753 7.375-5.633 7.375s-5.632-3.75-5.632-7.375S63.081 11 66.961 11s5.633 3.625 5.633 7.25m4.255 0c0-6.25-3.63-10.875-9.888-10.875S57.074 12 57.074 18.25c0 6.375 3.63 10.875 9.887 10.875 6.258 0 9.888-4.5 9.888-10.875" fill-rule="nonzero"/><path d="M50.19 28.625h4.38v-14.25c0-4.625-2.628-7-7.009-7-2.628 0-4.881 1.375-5.882 3.25h-.125V0h-4.381v28.625h4.38v-12.25c0-3 1.878-5.5 4.757-5.5 2.628 0 3.755 1.375 3.88 4.625zm-22.154 0L35.546 0H30.79l-5.007 21.875h-.125L20.276 0h-4.881L9.888 21.875h-.125L4.88 0H0l7.134 28.625h4.881L17.773 6.75h.125l5.382 21.875z"/></g></svg>